<?xml version="1.0" encoding="utf-8"?>
<!-- Generator: Adobe Illustrator 16.0.0, SVG Export Plug-In . SVG Version: 6.00 Build 0)  -->
<!DOCTYPE svg PUBLIC "-//W3C//DTD SVG 1.1//EN" "http://www.w3.org/Graphics/SVG/1.1/DTD/svg11.dtd">
<svg version="1.1" id="Layer_1" xmlns="http://www.w3.org/2000/svg" xmlns:xlink="http://www.w3.org/1999/xlink" x="0px" y="0px"
	 width="351px" height="113.39px" viewBox="0 0 351 113.39" enable-background="new 0 0 351 113.39" xml:space="preserve">
<g>
	<polygon fill-rule="evenodd" clip-rule="evenodd" points="49.482,110.165 3.049,83.258 2.964,29.593 49.31,2.835 95.743,29.742 
		95.828,83.407 	"/>
	<path fill="#FFFFFF" d="M49.396,27.784c-16.212,0-29.353,13.142-29.353,29.353c0,16.213,13.141,29.354,29.353,29.354
		S78.749,73.35,78.749,57.137C78.749,40.926,65.608,27.784,49.396,27.784z M60.403,41.314c3.667,0,6.65,2.983,6.65,6.65
		c0,0.365-0.032,0.737-0.093,1.108c-0.093,0.551-0.57,0.955-1.13,0.955c-0.561,0-1.038-0.404-1.13-0.957
		c-0.352-2.103-2.159-3.057-4.294-3.057s-3.944,0.954-4.294,3.057c-0.093,0.551-0.569,0.957-1.13,0.957l0,0
		c-0.561,0-1.037-0.404-1.131-0.955c-0.061-0.369-0.093-0.741-0.093-1.108c0-3.667,2.983-6.65,6.651-6.65H60.403z M38.389,41.314
		c3.667,0,6.65,2.983,6.65,6.65c0,0.365-0.032,0.737-0.093,1.108c-0.094,0.551-0.571,0.955-1.131,0.955
		c-0.559,0-1.038-0.404-1.13-0.957c-0.354-2.103-2.159-3.057-4.294-3.057s-3.942,0.954-4.294,3.057
		c-0.094,0.551-0.571,0.957-1.13,0.957l0,0c-0.56,0-1.039-0.404-1.13-0.955c-0.062-0.369-0.094-0.741-0.094-1.108
		c0-3.667,2.983-6.65,6.651-6.65H38.389z M31.05,60.807h11.007v14.208C35.747,73.376,31.05,67.612,31.05,60.807z M45.727,75.482
		V60.807h7.338v14.676H45.727z M56.734,75.015V60.807h11.007C67.742,67.612,63.047,73.376,56.734,75.015z"/>
</g>
<g>
	<path d="M139.698,79.929v12.223h-28.991V21.442h12.122v58.486H139.698z"/>
	<path d="M165.455,66.09l12.223-2.828v21.415c0,4.04-3.435,7.475-7.475,7.475h-18.183c-4.142,0-7.476-3.435-7.476-7.475v-55.76
		c0-4.142,3.334-7.475,7.476-7.475h18.183c4.04,0,7.475,3.333,7.475,7.475v14.344l-12.223,2.829V33.563h-8.788v46.365h8.788V66.09z"
		/>
	<path d="M216.869,38.21v53.941h-12.223V71.141h-8.788v21.011h-12.122V38.21h12.122V59.02h8.788V38.21H216.869z"/>
	<path d="M256.061,92.151h-12.122V79.626h-8.889v12.525h-12.122V45.686c0-4.142,3.334-7.475,7.475-7.475h18.183
		c4.142,0,7.476,3.333,7.476,7.475V92.151z M243.938,50.332h-8.889v17.071h8.889V50.332z"/>
	<path d="M283.13,70.332l12.122-2.828v17.173c0,4.142-3.334,7.475-7.476,7.475h-18.183c-4.141,0-7.475-3.333-7.475-7.475V45.686
		c0-4.142,3.334-7.475,7.475-7.475h18.183c4.142,0,7.476,3.333,7.476,7.475v10.202l-12.122,2.828v-8.384h-8.889v29.697h8.889V70.332
		z"/>
	<path d="M336.16,92.151h-12.223l-9.091-21.011h-1.414v21.011h-12.122V38.21h12.122V59.02h1.312l8.89-20.809h12.525l-11.516,26.87
		L336.16,92.151z"/>
</g>
<g>
</g>
<g>
</g>
<g>
</g>
<g>
</g>
<g>
</g>
<g>
</g>
<g>
</g>
<g>
</g>
<g>
</g>
<g>
</g>
<g>
</g>
<g>
</g>
<g>
</g>
<g>
</g>
<g>
</g>
</svg>
